<svg xmlns="http://www.w3.org/2000/svg" viewBox="0 0 2600 703.02316">
  <defs>
    <style>
      .a5ce69dd-99ac-4362-9fcc-fe71d7bf4674 {
        fill: #fff;
      }
    </style>
  </defs>
  <g id="b86e3fc2-435b-4cb4-b84d-c6be42b64a8c" data-name="Ebene 2">
    <g id="b35529d3-b025-4044-bc75-01f8f3b13461" data-name="Ebene 1">
      <g>
        <path class="a5ce69dd-99ac-4362-9fcc-fe71d7bf4674" d="M157.8991,112.99925q34.95348-18.77844,79.86871-18.7733,52.26845,0,94.59568,25.76708,42.317,25.7722,66.9903,73.24463,24.64767,47.47755,24.65793,110.0518,0,62.58964-24.65793,110.79123-24.67848,48.2324-66.9903,74.72349-42.33237,26.49624-94.59568,26.49624-44.905,0-79.12928-18.40359-34.22944-18.39332-55.58048-46.37868v252.505H0V100.85H103.05805v58.89764Q122.93023,131.77254,157.8991,112.99925ZM303.65923,239.61634q-15.09669-26.866-39.75463-40.8535a106.51035,106.51035,0,0,0-53.37246-13.98755,102.91793,102.91793,0,0,0-52.633,14.35726q-24.67847,14.34186-39.75463,41.58266-15.09669,27.25107-15.08642,64.05311,0,36.81744,15.08642,64.04284,15.0813,27.23567,39.75463,41.59292a103.93018,103.93018,0,0,0,106.0055-.36971q24.64767-14.71158,39.75463-41.96264,15.06588-27.22026,15.08643-64.78227Q318.74566,266.48743,303.65923,239.61634Z"/>
        <path class="a5ce69dd-99ac-4362-9fcc-fe71d7bf4674" d="M526.70006,193.60737q24.64766-47.84727,66.98-73.61434Q636.01245,94.23622,688.27577,94.226q45.6444,0,79.8687,18.40359,34.24485,18.40872,54.85133,46.37868V100.85H926.783V508.67636H822.9958v-59.6268q-19.88759,28.71453-54.85133,47.47755-34.96887,18.77844-80.59786,18.77331-51.54442,0-93.86652-26.49624-42.33237-26.51163-66.98-74.72349-24.67848-48.20159-24.66821-110.79123Q502.03185,241.45465,526.70006,193.60737Zm281.56876,46.7484q-14.727-26.866-39.75463-41.22322a106.23314,106.23314,0,0,0-53.73191-14.35726,104.46913,104.46913,0,0,0-53.00275,13.98755q-24.29336,13.98754-39.38491,40.8535-15.09671,26.88135-15.08643,63.67312,0,36.81744,15.08643,64.41255,15.08128,27.60539,39.75462,42.33236a100.89274,100.89274,0,0,0,52.633,14.7167,106.22289,106.22289,0,0,0,53.73191-14.347q25.01738-14.35727,39.75463-41.22321,14.71157-26.86595,14.727-64.41255Q822.9958,267.22685,808.26882,240.35577Z"/>
        <path class="a5ce69dd-99ac-4362-9fcc-fe71d7bf4674" d="M1400.8603,140.97435q44.88955,46.01409,44.9101,128.45539V508.67636H1342.70208V283.41728q0-48.5867-24.28822-74.72349-24.29336-26.11112-66.25087-26.12652-42.70207,0-67.36,26.12652-24.66307,26.14192-24.65794,74.72349V508.67636H1057.087V100.85H1160.145v50.79472q20.59621-26.49624,52.633-41.59293,32.02656-15.08129,70.29719-15.08642Q1355.95534,94.96538,1400.8603,140.97435Z"/>
        <path class="a5ce69dd-99ac-4362-9fcc-fe71d7bf4674" d="M1693.09944,185.50445V382.7987q0,20.6116,9.931,29.8134,9.93609,9.21207,33.50028,9.20179H1784.378v86.86247h-64.78228q-130.29372,0-130.29371-126.61709V185.50445h-48.58671V100.85H1589.302V0h103.79747V100.85H1784.378v84.65444Z"/>
        <path class="a5ce69dd-99ac-4362-9fcc-fe71d7bf4674" d="M2264.32962,335.68059h-298.134q3.66634,44.16554,30.91228,69.19831,27.23566,25.03278,66.9903,25.02764,57.42906,0,81.71728-49.31586h111.1507q-17.66929,58.8925-67.71946,96.80369-50.081,37.91118-122.9405,37.90605-58.89252,0-105.63579-26.13679-46.75353-26.11112-72.87492-73.97379-26.14194-47.84727-26.1368-110.42152,0-63.31368,25.76708-111.161,25.75682-47.84727,72.14577-73.61434,46.36842-25.75682,106.73466-25.76708,58.15308,0,104.16719,25.02765a176.27068,176.27068,0,0,1,71.40634,71.03661q25.3871,46.01409,25.39737,105.63576A244.52791,244.52791,0,0,1,2264.32962,335.68059Zm-103.79748-69.1983q-.73944-39.74436-28.70426-63.67313-27.99051-23.90823-68.45889-23.92877-38.29631,0-64.41257,23.18934-26.14192,23.19961-32.02142,64.41256Z"/>
        <path class="a5ce69dd-99ac-4362-9fcc-fe71d7bf4674" d="M2526.75536,113.369Q2558.78192,94.97565,2600,94.96538v108.2135h-27.23567q-48.58671,0-73.24464,22.81962-24.66308,22.82989-24.65794,79.499V508.67636H2371.8037V100.85h103.05805v63.31368A145.0003,145.0003,0,0,1,2526.75536,113.369Z"/>
      </g>
    </g>
  </g>
</svg>
